<?xml version="1.0" encoding="iso-8859-1"?>
<!-- Uploaded to: SVG Repo, www.svgrepo.com, Generator: SVG Repo Mixer Tools -->
<svg fill="#000000" height="800px" width="800px" version="1.1" id="Layer_1" xmlns="http://www.w3.org/2000/svg" xmlns:xlink="http://www.w3.org/1999/xlink" 
	 viewBox="0 0 512 512" xml:space="preserve">
<g transform="translate(1 1)">
	<g>
		<g>
			<path d="M135.533,67.267h-51.2c-5.12,0-8.533,3.413-8.533,8.533V127c0,5.12,3.413,8.533,8.533,8.533h51.2
				c5.12,0,8.533-3.413,8.533-8.533V75.8C144.067,70.68,140.653,67.267,135.533,67.267z M127,118.467H92.867V84.333H127V118.467z"/>
			<path d="M220.867,67.267h-51.2c-5.12,0-8.533,3.413-8.533,8.533V127c0,5.12,3.413,8.533,8.533,8.533h51.2
				c5.12,0,8.533-3.413,8.533-8.533V75.8C229.4,70.68,225.987,67.267,220.867,67.267z M212.333,118.467H178.2V84.333h34.133V118.467
				z"/>
			<path d="M135.533,152.6h-51.2c-5.12,0-8.533,3.413-8.533,8.533v51.2c0,5.12,3.413,8.533,8.533,8.533h51.2
				c5.12,0,8.533-3.413,8.533-8.533v-51.2C144.067,156.013,140.653,152.6,135.533,152.6z M127,203.8H92.867v-34.133H127V203.8z"/>
			<path d="M220.867,152.6h-51.2c-5.12,0-8.533,3.413-8.533,8.533v51.2c0,5.12,3.413,8.533,8.533,8.533h51.2
				c5.12,0,8.533-3.413,8.533-8.533v-51.2C229.4,156.013,225.987,152.6,220.867,152.6z M212.333,203.8H178.2v-34.133h34.133V203.8z"
				/>
			<path d="M135.533,237.933h-51.2c-5.12,0-8.533,3.413-8.533,8.533v51.2c0,5.12,3.413,8.533,8.533,8.533h51.2
				c5.12,0,8.533-3.413,8.533-8.533v-51.2C144.067,241.347,140.653,237.933,135.533,237.933z M127,289.133H92.867V255H127V289.133z"
				/>
			<path d="M220.867,237.933h-51.2c-5.12,0-8.533,3.413-8.533,8.533v51.2c0,5.12,3.413,8.533,8.533,8.533h51.2
				c5.12,0,8.533-3.413,8.533-8.533v-51.2C229.4,241.347,225.987,237.933,220.867,237.933z M212.333,289.133H178.2V255h34.133
				V289.133z"/>
			<path d="M135.533,323.267h-51.2c-5.12,0-8.533,3.413-8.533,8.533V383c0,5.12,3.413,8.533,8.533,8.533h51.2
				c5.12,0,8.533-3.413,8.533-8.533v-51.2C144.067,326.68,140.653,323.267,135.533,323.267z M127,374.467H92.867v-34.133H127
				V374.467z"/>
			<path d="M220.867,323.267h-51.2c-5.12,0-8.533,3.413-8.533,8.533V383c0,5.12,3.413,8.533,8.533,8.533h51.2
				c5.12,0,8.533-3.413,8.533-8.533v-51.2C229.4,326.68,225.987,323.267,220.867,323.267z M212.333,374.467H178.2v-34.133h34.133
				V374.467z"/>
			<path d="M135.533,408.6h-51.2c-5.12,0-8.533,3.413-8.533,8.533v51.2c0,5.12,3.413,8.533,8.533,8.533h51.2
				c5.12,0,8.533-3.413,8.533-8.533v-51.2C144.067,412.013,140.653,408.6,135.533,408.6z M127,459.8H92.867v-34.133H127V459.8z"/>
			<path d="M220.867,408.6h-51.2c-5.12,0-8.533,3.413-8.533,8.533v51.2c0,5.12,3.413,8.533,8.533,8.533h51.2
				c5.12,0,8.533-3.413,8.533-8.533v-51.2C229.4,412.013,225.987,408.6,220.867,408.6z M212.333,459.8H178.2v-34.133h34.133V459.8z"
				/>
			<path d="M502.467,101.4h-34.133V75.8c0-5.12-3.413-8.533-8.533-8.533H340.333c-5.12,0-8.533,3.413-8.533,8.533v25.6h-25.6V75.8
				V41.667c0-5.12-3.413-8.533-8.533-8.533h-76.8v-25.6c0-5.12-3.413-8.533-8.533-8.533H92.867c-5.12,0-8.533,3.413-8.533,8.533
				v25.6h-76.8C2.413,33.133-1,36.547-1,41.667V75.8V127v34.133v51.2v34.133v51.2V331.8V383v34.133v51.2v34.133
				c0,5.12,3.413,8.533,8.533,8.533h290.133h204.8c5.12,0,8.533-3.413,8.533-8.533v-51.2v-51.2v-34.133v-51.2V280.6v-51.2v-34.133
				v-51.2v-34.133C511,104.813,507.587,101.4,502.467,101.4z M493.933,357.4h-25.6v-34.133h25.6V357.4z M493.933,272.067h-25.6
				v-34.133h25.6V272.067z M493.933,186.733h-25.6V152.6h25.6V186.733z M348.867,84.333h102.4V101.4h-102.4V84.333z
				 M289.133,109.933v8.533h-25.6V84.333h25.6V109.933z M289.133,195.267v8.533h-25.6v-34.133h25.6V195.267z M289.133,280.6v8.533
				h-25.6V255h25.6V280.6z M289.133,365.933v8.533h-25.6v-34.133h25.6V365.933z M289.133,451.267v8.533h-25.6v-34.133h25.6V451.267z
				 M306.2,417.133V408.6h25.6v34.133h-25.6V417.133z M306.2,331.8v-8.533h25.6V357.4h-25.6V331.8z M306.2,246.467v-8.533h25.6
				v34.133h-25.6V246.467z M306.2,161.133V152.6h25.6v34.133h-25.6V161.133z M101.4,16.067h102.4v17.067H101.4V16.067z
				 M16.067,84.333h25.6v34.133h-25.6V84.333z M16.067,169.667h25.6V203.8h-25.6V169.667z M16.067,255h25.6v34.133h-25.6V255z
				 M16.067,340.333h25.6v34.133h-25.6V340.333z M16.067,425.667h25.6V459.8h-25.6V425.667z M16.067,476.867H50.2
				c5.12,0,8.533-3.413,8.533-8.533v-51.2c0-5.12-3.413-8.533-8.533-8.533H16.067v-17.067H50.2c5.12,0,8.533-3.413,8.533-8.533
				v-51.2c0-5.12-3.413-8.533-8.533-8.533H16.067V306.2H50.2c5.12,0,8.533-3.413,8.533-8.533v-51.2c0-5.12-3.413-8.533-8.533-8.533
				H16.067v-17.067H50.2c5.12,0,8.533-3.413,8.533-8.533v-51.2c0-5.12-3.413-8.533-8.533-8.533H16.067v-17.067H50.2
				c5.12,0,8.533-3.413,8.533-8.533V75.8c0-5.12-3.413-8.533-8.533-8.533H16.067V50.2h76.8h119.467h76.8v17.067H255
				c-5.12,0-8.533,3.413-8.533,8.533V127c0,5.12,3.413,8.533,8.533,8.533h34.133v8.533v8.533H255c-5.12,0-8.533,3.413-8.533,8.533
				v51.2c0,5.12,3.413,8.533,8.533,8.533h34.133v8.533v8.533H255c-5.12,0-8.533,3.413-8.533,8.533v51.2
				c0,5.12,3.413,8.533,8.533,8.533h34.133v8.533v8.533H255c-5.12,0-8.533,3.413-8.533,8.533V383c0,5.12,3.413,8.533,8.533,8.533
				h34.133v8.533v8.533H255c-5.12,0-8.533,3.413-8.533,8.533v51.2c0,5.12,3.413,8.533,8.533,8.533h34.133v17.067H16.067V476.867z
				 M306.2,493.933v-25.6V459.8h34.133c5.12,0,8.533-3.413,8.533-8.533v-51.2c0-5.12-3.413-8.533-8.533-8.533H306.2V383v-8.533
				h34.133c5.12,0,8.533-3.413,8.533-8.533v-51.2c0-5.12-3.413-8.533-8.533-8.533H306.2v-8.533v-8.533h34.133
				c5.12,0,8.533-3.413,8.533-8.533v-51.2c0-5.12-3.413-8.533-8.533-8.533H306.2v-8.533V203.8h34.133
				c5.12,0,8.533-3.413,8.533-8.533v-51.2c0-5.12-3.413-8.533-8.533-8.533H306.2V127v-8.533h34.133H459.8h34.133v17.067H459.8
				c-5.12,0-8.533,3.413-8.533,8.533v51.2c0,5.12,3.413,8.533,8.533,8.533h34.133v17.067H459.8c-5.12,0-8.533,3.413-8.533,8.533
				v51.2c0,5.12,3.413,8.533,8.533,8.533h34.133V306.2H459.8c-5.12,0-8.533,3.413-8.533,8.533v51.2c0,5.12,3.413,8.533,8.533,8.533
				h34.133v17.067H459.8c-5.12,0-8.533,3.413-8.533,8.533v51.2c0,5.12,3.413,8.533,8.533,8.533h34.133v34.133H306.2z
				 M493.933,442.733h-25.6V408.6h25.6V442.733z"/>
			<path d="M425.667,135.533h-51.2c-5.12,0-8.533,3.413-8.533,8.533v51.2c0,5.12,3.413,8.533,8.533,8.533h51.2
				c5.12,0,8.533-3.413,8.533-8.533v-51.2C434.2,138.947,430.787,135.533,425.667,135.533z M417.133,186.733H383V152.6h34.133
				V186.733z"/>
			<path d="M425.667,220.867h-51.2c-5.12,0-8.533,3.413-8.533,8.533v51.2c0,5.12,3.413,8.533,8.533,8.533h51.2
				c5.12,0,8.533-3.413,8.533-8.533v-51.2C434.2,224.28,430.787,220.867,425.667,220.867z M417.133,272.067H383v-34.133h34.133
				V272.067z"/>
			<path d="M425.667,306.2h-51.2c-5.12,0-8.533,3.413-8.533,8.533v51.2c0,5.12,3.413,8.533,8.533,8.533h51.2
				c5.12,0,8.533-3.413,8.533-8.533v-51.2C434.2,309.613,430.787,306.2,425.667,306.2z M417.133,357.4H383v-34.133h34.133V357.4z"/>
			<path d="M425.667,391.533h-51.2c-5.12,0-8.533,3.413-8.533,8.533v51.2c0,5.12,3.413,8.533,8.533,8.533h51.2
				c5.12,0,8.533-3.413,8.533-8.533v-51.2C434.2,394.947,430.787,391.533,425.667,391.533z M417.133,442.733H383V408.6h34.133
				V442.733z"/>
		</g>
	</g>
</g>
</svg>